# xmcd
#
# Track frame offsets: 
#        150
#        14439
#        24750
#        37302
#        51396
#        64425
#        77865
#        89913
#        103215
#        115521
#        128964
#        141870
#        154371
#        167359
#        180649
#        192760
#        205618
#        217545
#        228246
#        241251
#        255786
#        269658
#        284859
#        298005
#        312207
#
# Disc length: 4321 seconds
#
# Revision: 3
# Processed by: cddbd v1.5.2PL0 Copyright (c) Steve Scherf et al.
# Submitted via: ExactAudioCopy v0.99pb3
#
DISCID=6f10df19
DTITLE=The Andews Sisters - Rhum and Coca-Cola
DYEAR=2004
DGENRE=Jazz
TTITLE0=Rhum and Coca-Cola
TTITLE1=Tico Tico
TTITLE2=In The Mood
TTITLE3=Bei Mir Bist Du Schön
TTITLE4=Chattanooga Choo Choo
TTITLE5=I'll Be With You In The Apple Blossom Time
TTITLE6=Boogie Woogie Bugle Boy
TTITLE7=I Want My Mama
TTITLE8=Begin The Beguine
TTITLE9=Don't Sit Under The Apple Tree (With Anyone Else But Me)
TTITLE10=Beat Me Daddy, Eight To The Bar
TTITLE11=Oh Johnny! Oh Johnny! Oh!
TTITLE12=Sha Sha
TTITLE13=Down By The Ohio
TTITLE14=Just A Simple Melody
TTITLE15=The Jumpin' Jive
TTITLE16=Rhumboogie
TTITLE17=Sabre Dance
TTITLE18=Beer Barrel Polka
TTITLE19=Billy Boy (with Ray Mc Kinley)
TTITLE20=Ferryboat Serenade
TTITLE21=Twelve Days Of Christmas (with Bing Crosby)
TTITLE22=Jing A Ling Jing A Long (with Vic Shoen)
TTITLE23=The Christmas Tree Angel (with Vic Shoen)
TTITLE24=Winter Wonderland (with Guy Lombardo)
EXTD=YEAR: 2004
EXTT0=
EXTT1=
EXTT2=
EXTT3=
EXTT4=
EXTT5=
EXTT6=
EXTT7=
EXTT8=
EXTT9=
EXTT10=
EXTT11=
EXTT12=
EXTT13=
EXTT14=
EXTT15=
EXTT16=
EXTT17=
EXTT18=
EXTT19=
EXTT20=
EXTT21=
EXTT22=
EXTT23=
EXTT24=
PLAYORDER=
